<svg width="57" height="55" viewBox="0 0 57 55" fill="none" xmlns="http://www.w3.org/2000/svg">
<g clip-path="url(#clip0_4652_38933)">
<path d="M55.7227 29.3867L46.1426 13.918C45.8789 13.4785 45.4395 13.2148 45 13.2148C44.4727 13.2148 44.0332 13.4785 43.7695 13.918L34.1895 29.3867C33.8379 29.8262 33.6621 30.4414 33.75 31.0566C34.1895 36.8574 39.0234 41.3398 45 41.3398C50.8887 41.3398 55.7227 36.8574 56.1621 31.0566C56.25 30.4414 56.0742 29.8262 55.7227 29.3867ZM45 38.5273C41.3086 38.5273 38.1445 36.1543 37.002 32.9023H52.9102C51.7676 36.2422 48.6035 38.5273 45 38.5273ZM37.002 30.0898L45 17.3457L52.9102 30.0898H37.002ZM47.1094 46.9648H29.5312V15.8516C31.9043 15.2363 33.75 13.0391 33.75 10.4023H47.1094C47.4609 10.4023 47.8125 10.1387 47.8125 9.69922V8.29297C47.8125 7.94141 47.4609 7.58984 47.1094 7.58984H32.8711C32.8711 7.58984 32.5195 6.62305 31.2012 5.74414C30.3223 5.2168 29.2676 4.77734 28.125 4.77734C26.8945 4.77734 25.8398 5.2168 24.9609 5.74414C23.6426 6.62305 23.291 7.58984 23.291 7.58984H9.14062C8.70117 7.58984 8.4375 7.94141 8.4375 8.29297V9.69922C8.4375 10.1387 8.70117 10.4023 9.14062 10.4023H22.5C22.5 13.0391 24.2578 15.2363 26.7188 15.8516V46.9648H9.14062C8.70117 46.9648 8.4375 47.3164 8.4375 47.668V49.0742C8.4375 49.5137 8.70117 49.7773 9.14062 49.7773H47.1094C47.4609 49.7773 47.8125 49.5137 47.8125 49.0742V47.668C47.8125 47.3164 47.4609 46.9648 47.1094 46.9648ZM25.3125 10.4023C25.3125 8.9082 26.543 7.58984 28.125 7.58984C29.6191 7.58984 30.9375 8.9082 30.9375 10.4023C30.9375 11.9844 29.6191 13.2148 28.125 13.2148C26.543 13.2148 25.3125 11.9844 25.3125 10.4023ZM22.4121 31.0566C22.5 30.4414 22.3242 29.8262 21.9727 29.3867L12.3926 13.918C12.1289 13.4785 11.6895 13.2148 11.25 13.2148C10.7227 13.2148 10.2832 13.4785 10.0195 13.918L0.439453 29.3867C0.0878906 29.8262 -0.0878906 30.4414 0 31.0566C0.439453 36.8574 5.27344 41.3398 11.25 41.3398C17.1387 41.3398 21.9727 36.8574 22.4121 31.0566ZM11.25 17.3457L19.1602 30.0898H3.25195L11.25 17.3457ZM3.25195 32.9023H19.1602C18.0176 36.2422 14.8535 38.5273 11.25 38.5273C7.55859 38.5273 4.39453 36.1543 3.25195 32.9023Z" fill="#3157AC"/>
</g>
<defs>
<clipPath id="clip0_4652_38933">
<rect width="57" height="55" rx="27.5" fill="white"/>
</clipPath>
</defs>
</svg>
