<svg width="45" height="46" viewBox="0 0 45 46" fill="none" xmlns="http://www.w3.org/2000/svg">
<g clip-path="url(#clip0_4652_38932)">
<path d="M43.9453 17.1582L42.1875 15.3125C41.0449 14.2578 39.2871 14.082 38.0566 14.873L30.8496 7.66602C31.6406 6.43555 31.4648 4.67773 30.4102 3.53516L28.5645 1.77734C27.2461 0.458984 25.1367 0.458984 23.8184 1.77734L13.8867 11.709C12.5684 13.0273 12.5684 15.1367 13.8867 16.4551L15.6445 18.2129C16.7871 19.3555 18.5449 19.5312 19.7754 18.7402L22.4121 21.2891L17.2266 26.4746L16.5234 25.7715C15.0293 24.2773 12.6562 24.2773 11.1621 25.7715L1.05469 35.8789C-0.439453 37.373 -0.439453 39.7461 1.05469 41.2402L4.48242 44.668C5.97656 46.1621 8.34961 46.1621 9.84375 44.668L19.9512 34.5605C21.4453 33.0664 21.4453 30.6934 19.9512 29.1992L19.248 28.4961L24.4336 23.3105L26.9824 25.9473C26.1914 27.1777 26.3672 28.9355 27.5098 30.0781L29.2676 31.8359C30.5859 33.1543 32.6953 33.1543 34.0137 31.8359L43.9453 21.9043C45.2637 20.5859 45.2637 18.4766 43.9453 17.1582ZM17.9297 32.627L7.91016 42.6465C7.4707 43.0859 6.85547 43.0859 6.50391 42.6465L3.07617 39.2188C2.63672 38.8672 2.63672 38.252 3.07617 37.8125L13.0957 27.793C13.5352 27.3535 14.1504 27.3535 14.502 27.793L17.9297 31.2207C18.3691 31.5723 18.3691 32.1875 17.9297 32.627ZM42.0117 19.8828L31.9922 29.9023C31.9043 29.9902 31.7285 29.9902 31.6406 29.9902C31.5527 29.9902 31.377 29.9902 31.2891 29.9023L29.4434 28.0566C29.3555 27.9688 29.3555 27.793 29.3555 27.7051C29.3555 27.5293 29.3555 27.4414 29.4434 27.3535L30.9375 25.8594L19.8633 14.7852L18.3691 16.2793C18.2812 16.3672 18.1934 16.3672 18.0176 16.3672C17.9297 16.3672 17.7539 16.3672 17.666 16.2793L15.8203 14.4336C15.7324 14.3457 15.7324 14.1699 15.7324 14.082C15.7324 13.9941 15.7324 13.8184 15.8203 13.7305L25.8398 3.71094C25.9277 3.62305 26.1035 3.62305 26.1914 3.62305C26.2793 3.62305 26.4551 3.62305 26.543 3.71094L28.3887 5.55664C28.4766 5.64453 28.5645 5.82031 28.5645 5.9082C28.5645 5.99609 28.4766 6.17188 28.3887 6.25977L26.8945 7.75391L37.9688 18.8281L39.4629 17.334C39.5508 17.2461 39.7266 17.1582 39.8145 17.1582C39.9023 17.1582 40.0781 17.2461 40.166 17.334L42.0117 19.1797C42.0996 19.2676 42.1875 19.4434 42.1875 19.5312C42.1875 19.6191 42.0996 19.7949 42.0117 19.8828Z" fill="#467CF6"/>
</g>
<defs>
<clipPath id="clip0_4652_38932">
<rect width="45" height="46" fill="white"/>
</clipPath>
</defs>
</svg>
