<svg width="359" height="294" viewBox="0 0 359 294" fill="none" xmlns="http://www.w3.org/2000/svg">
<rect x="161" y="73" width="59" height="151" fill="#DFC8FC"/>
<rect x="130" y="119" width="21" height="105" fill="#DFC8FC"/>
<rect x="251" y="161" width="21" height="63" fill="#DFC8FC"/>
<circle r="21" transform="matrix(-1 0 0 1 36 208)" fill="#FCEC7C"/>
<ellipse rx="21" ry="20.5" transform="matrix(-1 0 0 1 111 85.5)" fill="#EC6961"/>
<circle r="21" transform="matrix(-1 0 0 1 201 39)" fill="#9346F6"/>
<ellipse cx="287" cy="132" rx="20" ry="21" fill="#5CCBC9"/>
<path d="M239.905 85.852C238.611 85.852 237.748 86.7148 237.748 88.0096V221.774H165.688V88.0089C165.688 86.7148 164.825 85.8513 163.53 85.8513C162.236 85.8513 161.373 86.7141 161.373 88.0089V223.931C161.373 225.225 162.235 226.089 163.53 226.089H239.905C241.2 226.089 242.063 225.225 242.063 223.931V88.0089C242.063 86.7148 241.2 85.852 239.905 85.852Z" fill="#3B1C62"/>
<path d="M148.644 128.354C147.35 128.354 146.486 129.217 146.486 130.512V221.775H74.426V130.512C74.426 129.218 73.5625 128.354 72.2684 128.354C70.9743 128.354 70.1108 129.217 70.1108 130.512V223.932C70.1108 225.226 70.9736 226.09 72.2684 226.09H148.644C149.723 226.09 150.801 225.226 150.801 223.932V130.512C150.801 129.218 149.939 128.354 148.644 128.354Z" fill="#3B1C62"/>
<path d="M239.905 73.1216H163.529C159.862 73.1216 157.057 75.9262 157.057 79.3786V83.6937C157.057 87.3611 159.861 90.1664 163.529 90.1664H218.761C220.055 90.1664 220.919 89.303 220.919 88.0088C220.919 86.7147 220.056 85.8513 218.761 85.8513H163.529C162.451 85.8513 161.372 84.7728 161.372 83.6937V79.3793C161.372 78.3009 162.235 77.4374 163.529 77.4374H239.905C241.199 77.4374 242.062 78.3002 242.062 79.3793V83.6944C242.062 84.9885 240.984 85.852 239.905 85.852H235.59C234.295 85.852 233.432 86.7154 233.432 88.0095C233.432 89.3037 234.295 90.1671 235.59 90.1671H239.905C243.573 90.1671 246.377 87.3625 246.377 83.6944V79.3793C246.377 75.9269 243.357 73.1216 239.905 73.1216Z" fill="#3B1C62"/>
<path d="M329.011 170.857C327.717 170.857 326.853 171.72 326.853 173.015V221.774H254.792V173.015C254.792 171.721 253.929 170.857 252.635 170.857C251.34 170.857 250.477 171.72 250.477 173.015V223.932C250.477 225.226 251.34 226.09 252.635 226.09H329.011C330.305 226.09 331.168 225.226 331.168 223.932V173.015C331.168 171.721 330.305 170.857 329.011 170.857Z" fill="#3B1C62"/>
<path d="M148.643 115.625H72.2681C68.6 115.625 65.7954 118.429 65.7954 121.882V126.197C65.7954 129.864 68.8157 132.669 72.2681 132.669H127.5C128.794 132.669 129.657 131.806 129.657 130.512C129.657 129.218 128.795 128.354 127.5 128.354H72.2681C71.1897 128.354 70.1105 127.276 70.1105 126.197V121.882C70.1105 120.803 71.189 119.94 72.2681 119.94H148.643C149.938 119.94 150.801 120.802 150.801 121.882V126.197C150.801 127.491 149.723 128.354 148.643 128.354H144.328C143.034 128.354 142.171 129.218 142.171 130.512C142.171 131.806 143.033 132.669 144.328 132.669H148.643C152.095 132.669 155.116 129.865 155.116 126.197V121.882C155.116 118.429 152.095 115.625 148.643 115.625Z" fill="#3B1C62"/>
<path d="M329.011 158.127H252.635C249.184 158.127 246.163 161.148 246.163 164.6V168.915C246.163 172.367 248.967 175.172 252.635 175.172H307.867C309.161 175.172 310.025 174.309 310.025 173.014C310.025 171.72 309.162 170.857 307.867 170.857H252.635C251.341 170.857 250.478 169.994 250.478 168.915V164.6C250.478 163.521 251.556 162.442 252.635 162.442H329.011C330.09 162.442 331.169 163.521 331.169 164.6V168.915C331.169 169.993 330.306 170.857 329.011 170.857H324.696C323.402 170.857 322.539 171.72 322.539 173.014C322.539 174.309 323.401 175.172 324.696 175.172H329.011C332.679 175.172 335.483 172.367 335.483 168.915V164.6C335.483 160.932 332.462 158.127 329.011 158.127Z" fill="#3B1C62"/>
<path d="M65.4417 251.28C66.6551 251.28 67.6484 251.567 68.4217 252.14C69.2084 252.713 69.6017 253.5 69.6017 254.5C69.6017 255.393 69.3617 256.153 68.8817 256.78C68.4151 257.407 67.8351 257.787 67.1417 257.92V258.02C67.7817 258.273 68.3084 258.713 68.7217 259.34C69.1351 259.967 69.3417 260.72 69.3417 261.6C69.3417 262.333 69.3817 262.887 69.4617 263.26C69.5417 263.633 69.6484 263.893 69.7817 264.04C69.9151 264.187 70.1084 264.3 70.3617 264.38V264.94C70.0684 265.06 69.7551 265.12 69.4217 265.12C68.7817 265.12 68.2817 264.933 67.9217 264.56C67.5617 264.173 67.3817 263.453 67.3817 262.4C67.3817 261.32 67.1551 260.48 66.7017 259.88C66.2617 259.267 65.7084 258.96 65.0417 258.96H61.5617V265H59.6017V251.28H65.4417ZM61.5617 253.06V257.18H65.4617C66.0351 257.18 66.5417 256.987 66.9817 256.6C67.4217 256.213 67.6417 255.733 67.6417 255.16V255.08C67.6417 254.493 67.4417 254.013 67.0417 253.64C66.6417 253.253 66.1151 253.06 65.4617 253.06H61.5617ZM76.8402 254.58C78.1868 254.58 79.1868 254.847 79.8402 255.38C80.5068 255.913 80.8402 256.687 80.8402 257.7V263C80.8402 263.24 80.8935 263.42 81.0002 263.54C81.1068 263.647 81.2402 263.7 81.4002 263.7C81.7068 263.7 82.0135 263.607 82.3202 263.42V264.8C81.8668 265.067 81.3535 265.2 80.7802 265.2C80.2068 265.2 79.7802 265.04 79.5002 264.72C79.2202 264.387 79.0668 263.933 79.0402 263.36C78.2135 264.587 77.0202 265.2 75.4602 265.2C74.3402 265.2 73.5002 264.96 72.9402 264.48C72.3935 263.987 72.1202 263.213 72.1202 262.16C72.1202 261.333 72.3335 260.687 72.7602 260.22C73.1868 259.74 73.8935 259.393 74.8802 259.18C75.8668 258.967 77.2268 258.86 78.9602 258.86V257.92C78.9602 257.24 78.7602 256.767 78.3602 256.5C77.9602 256.22 77.3802 256.08 76.6202 256.08C75.9002 256.08 75.3402 256.22 74.9402 256.5C74.5402 256.78 74.3402 257.173 74.3402 257.68V257.92H72.5002C72.4735 257.733 72.4602 257.513 72.4602 257.26C72.4602 256.793 72.6468 256.353 73.0202 255.94C73.3935 255.527 73.9002 255.2 74.5402 254.96C75.1802 254.707 75.8868 254.58 76.6602 254.58H76.8402ZM78.9602 260.32C77.5602 260.32 76.5002 260.393 75.7802 260.54C75.0735 260.673 74.6002 260.88 74.3602 261.16C74.1202 261.44 74.0002 261.827 74.0002 262.32C74.0002 263.24 74.7002 263.7 76.1002 263.7C76.5935 263.7 77.0602 263.58 77.5002 263.34C77.9402 263.087 78.2935 262.733 78.5602 262.28C78.8268 261.827 78.9602 261.307 78.9602 260.72V260.32ZM89.5594 254.58C90.6794 254.58 91.5594 254.88 92.1994 255.48C92.8394 256.08 93.1594 256.96 93.1594 258.12V265H91.2794V258.46C91.2794 256.873 90.5594 256.08 89.1194 256.08C88.6394 256.08 88.1927 256.207 87.7794 256.46C87.366 256.713 87.0327 257.06 86.7794 257.5C86.526 257.927 86.3994 258.4 86.3994 258.92V265H84.5194V254.78H85.8794L86.1394 256.28C86.9927 255.147 88.1327 254.58 89.5594 254.58ZM98.2548 250.6V260.48L102.815 254.78H104.875L100.935 259.74L105.135 265H102.855L99.7948 261.2L98.2548 262.8V265H96.3748V250.6H98.2548ZM108.998 250.6V252.34H107.038V250.6H108.998ZM108.958 254.78V265H107.078V254.78H108.958ZM117.313 254.58C118.433 254.58 119.313 254.88 119.953 255.48C120.593 256.08 120.913 256.96 120.913 258.12V265H119.033V258.46C119.033 256.873 118.313 256.08 116.873 256.08C116.393 256.08 115.947 256.207 115.533 256.46C115.12 256.713 114.787 257.06 114.533 257.5C114.28 257.927 114.153 258.4 114.153 258.92V265H112.273V254.78H113.633L113.893 256.28C114.747 255.147 115.887 254.58 117.313 254.58ZM133.489 252.94C133.489 253.62 133.309 254.193 132.949 254.66C132.589 255.113 132.089 255.407 131.449 255.54L131.409 255.6C132.075 256.187 132.409 256.92 132.409 257.8C132.409 258.76 132.049 259.533 131.329 260.12C130.609 260.707 129.629 261 128.389 261H127.029C126.629 261 126.295 261.107 126.029 261.32C125.762 261.52 125.629 261.78 125.629 262.1C125.629 262.42 125.755 262.673 126.009 262.86C126.262 263.047 126.602 263.14 127.029 263.14H130.889C131.675 263.14 132.302 263.387 132.769 263.88C133.249 264.373 133.489 265 133.489 265.76C133.489 266.667 133.142 267.393 132.449 267.94C131.769 268.487 130.849 268.76 129.689 268.76H125.669C125.215 268.76 124.795 268.64 124.409 268.4C124.035 268.16 123.735 267.853 123.509 267.48C123.295 267.12 123.189 266.747 123.189 266.36C123.189 265.8 123.322 265.313 123.589 264.9C123.869 264.487 124.235 264.18 124.689 263.98C124.075 263.607 123.769 263.053 123.769 262.32C123.769 261.84 123.909 261.427 124.189 261.08C124.469 260.733 124.862 260.473 125.369 260.3C124.475 259.807 124.029 258.973 124.029 257.8C124.029 256.813 124.389 256.033 125.109 255.46C125.842 254.873 126.855 254.58 128.149 254.58H128.229C128.975 254.58 129.655 254.693 130.269 254.92C131.215 254.453 131.755 253.793 131.889 252.94H133.489ZM128.209 256.08C127.502 256.08 126.935 256.22 126.509 256.5C126.095 256.767 125.889 257.2 125.889 257.8C125.889 258.4 126.095 258.833 126.509 259.1C126.935 259.367 127.502 259.5 128.209 259.5C128.915 259.5 129.482 259.367 129.909 259.1C130.335 258.833 130.549 258.4 130.549 257.8C130.549 257.2 130.335 256.767 129.909 256.5C129.482 256.22 128.915 256.08 128.209 256.08ZM126.209 264.94C125.889 264.94 125.615 265.053 125.389 265.28C125.162 265.507 125.049 265.78 125.049 266.1C125.049 266.42 125.162 266.693 125.389 266.92C125.615 267.147 125.889 267.26 126.209 267.26H130.069C130.495 267.26 130.862 267.133 131.169 266.88C131.475 266.64 131.629 266.36 131.629 266.04C131.629 265.707 131.515 265.44 131.289 265.24C131.062 265.04 130.742 264.94 130.329 264.94H126.209ZM148.719 265H147.319C147.225 264.573 147.139 264.107 147.059 263.6C146.299 264.667 145.245 265.2 143.899 265.2C142.619 265.2 141.605 264.727 140.859 263.78C140.125 262.833 139.759 261.533 139.759 259.88V259.66C139.759 258.1 140.119 256.867 140.839 255.96C141.572 255.04 142.592 254.58 143.899 254.58C145.165 254.58 146.145 255.08 146.839 256.08V250.6H148.719V265ZM144.239 256.08C143.345 256.08 142.685 256.393 142.259 257.02C141.845 257.633 141.639 258.593 141.639 259.9C141.639 261.207 141.852 262.167 142.279 262.78C142.705 263.393 143.359 263.7 144.239 263.7C145.985 263.7 146.859 262.433 146.859 259.9C146.859 258.593 146.639 257.633 146.199 257.02C145.759 256.393 145.105 256.08 144.239 256.08ZM156.139 254.58C156.979 254.58 157.719 254.76 158.359 255.12C159.012 255.467 159.519 255.967 159.879 256.62C160.239 257.273 160.419 258.033 160.419 258.9V260.32H153.279C153.306 261.4 153.559 262.233 154.039 262.82C154.519 263.407 155.232 263.7 156.179 263.7C157.019 263.7 157.639 263.453 158.039 262.96C158.439 262.467 158.639 261.88 158.639 261.2H160.419C160.419 262 160.232 262.7 159.859 263.3C159.499 263.9 158.992 264.367 158.339 264.7C157.699 265.033 156.966 265.2 156.139 265.2H156.059C154.619 265.2 153.479 264.74 152.639 263.82C151.812 262.887 151.399 261.647 151.399 260.1V259.7C151.399 258.687 151.586 257.793 151.959 257.02C152.332 256.247 152.866 255.647 153.559 255.22C154.252 254.793 155.066 254.58 155.999 254.58H156.139ZM156.039 256.08C155.279 256.08 154.659 256.313 154.179 256.78C153.712 257.247 153.426 257.94 153.319 258.86H158.559V258.62C158.559 257.86 158.326 257.247 157.859 256.78C157.406 256.313 156.799 256.08 156.039 256.08ZM170.235 254.78H172.615V256.28H170.235V262.38C170.235 262.86 170.328 263.207 170.515 263.42C170.702 263.633 170.988 263.74 171.375 263.74C171.722 263.74 172.135 263.64 172.615 263.44V264.84C172.135 265.08 171.515 265.2 170.755 265.2C169.968 265.2 169.368 264.967 168.955 264.5C168.555 264.033 168.355 263.293 168.355 262.28V256.28H167.235V254.78H168.415L169.055 251.52H170.235V254.78ZM179.549 254.58C180.496 254.58 181.236 254.887 181.769 255.5C182.302 256.1 182.569 256.86 182.569 257.78L182.509 258.54H180.849V258.1C180.849 257.7 180.749 257.347 180.549 257.04C180.349 256.733 180.096 256.5 179.789 256.34C179.482 256.167 179.176 256.08 178.869 256.08C178.229 256.08 177.729 256.333 177.369 256.84C177.009 257.347 176.829 258.033 176.829 258.9V265H174.949V254.78H176.289L176.569 256.3C176.649 256.033 176.829 255.767 177.109 255.5C177.389 255.233 177.736 255.013 178.149 254.84C178.576 254.667 179.042 254.58 179.549 254.58ZM188.774 254.58C190.12 254.58 191.12 254.847 191.774 255.38C192.44 255.913 192.774 256.687 192.774 257.7V263C192.774 263.24 192.827 263.42 192.934 263.54C193.04 263.647 193.174 263.7 193.334 263.7C193.64 263.7 193.947 263.607 194.254 263.42V264.8C193.8 265.067 193.287 265.2 192.714 265.2C192.14 265.2 191.714 265.04 191.434 264.72C191.154 264.387 191 263.933 190.974 263.36C190.147 264.587 188.954 265.2 187.394 265.2C186.274 265.2 185.434 264.96 184.874 264.48C184.327 263.987 184.054 263.213 184.054 262.16C184.054 261.333 184.267 260.687 184.694 260.22C185.12 259.74 185.827 259.393 186.814 259.18C187.8 258.967 189.16 258.86 190.894 258.86V257.92C190.894 257.24 190.694 256.767 190.294 256.5C189.894 256.22 189.314 256.08 188.554 256.08C187.834 256.08 187.274 256.22 186.874 256.5C186.474 256.78 186.274 257.173 186.274 257.68V257.92H184.434C184.407 257.733 184.394 257.513 184.394 257.26C184.394 256.793 184.58 256.353 184.954 255.94C185.327 255.527 185.834 255.2 186.474 254.96C187.114 254.707 187.82 254.58 188.594 254.58H188.774ZM190.894 260.32C189.494 260.32 188.434 260.393 187.714 260.54C187.007 260.673 186.534 260.88 186.294 261.16C186.054 261.44 185.934 261.827 185.934 262.32C185.934 263.24 186.634 263.7 188.034 263.7C188.527 263.7 188.994 263.58 189.434 263.34C189.874 263.087 190.227 262.733 190.494 262.28C190.76 261.827 190.894 261.307 190.894 260.72V260.32ZM201.493 254.58C202.613 254.58 203.493 254.88 204.133 255.48C204.773 256.08 205.093 256.96 205.093 258.12V265H203.213V258.46C203.213 256.873 202.493 256.08 201.053 256.08C200.573 256.08 200.126 256.207 199.713 256.46C199.3 256.713 198.966 257.06 198.713 257.5C198.46 257.927 198.333 258.4 198.333 258.92V265H196.453V254.78H197.813L198.073 256.28C198.926 255.147 200.066 254.58 201.493 254.58ZM212.208 254.58C212.968 254.58 213.642 254.7 214.228 254.94C214.828 255.18 215.288 255.513 215.608 255.94C215.942 256.367 216.108 256.84 216.108 257.36L216.088 257.72H214.228V257.54C214.228 256.567 213.475 256.08 211.968 256.08C210.475 256.08 209.728 256.527 209.728 257.42C209.728 257.833 209.942 258.14 210.368 258.34C210.795 258.527 211.448 258.707 212.328 258.88C213.168 259.053 213.855 259.233 214.388 259.42C214.935 259.607 215.395 259.9 215.768 260.3C216.155 260.7 216.348 261.24 216.348 261.92C216.348 263.013 215.975 263.833 215.228 264.38C214.482 264.927 213.408 265.2 212.008 265.2H211.708C210.868 265.2 210.135 265.073 209.508 264.82C208.882 264.553 208.395 264.2 208.048 263.76C207.715 263.307 207.555 262.8 207.568 262.24V261.8H209.428V262C209.428 263.133 210.382 263.7 212.288 263.7C212.848 263.7 213.348 263.573 213.788 263.32C214.242 263.067 214.468 262.72 214.468 262.28C214.468 261.907 214.342 261.613 214.088 261.4C213.848 261.187 213.548 261.027 213.188 260.92C212.828 260.813 212.328 260.707 211.688 260.6C210.862 260.44 210.195 260.28 209.688 260.12C209.182 259.947 208.748 259.66 208.388 259.26C208.028 258.86 207.848 258.313 207.848 257.62C207.848 256.673 208.222 255.933 208.968 255.4C209.715 254.853 210.735 254.58 212.028 254.58H212.208ZM223.812 254.58C225.105 254.58 226.119 255.053 226.852 256C227.585 256.947 227.952 258.247 227.952 259.9V260.12C227.952 261.693 227.585 262.933 226.852 263.84C226.132 264.747 225.119 265.2 223.812 265.2C222.559 265.2 221.579 264.7 220.872 263.7V268.62H218.992V254.78H220.392C220.485 255.207 220.572 255.673 220.652 256.18C221.412 255.113 222.465 254.58 223.812 254.58ZM223.472 256.08C222.565 256.08 221.899 256.393 221.472 257.02C221.059 257.647 220.852 258.6 220.852 259.88C220.852 261.187 221.065 262.153 221.492 262.78C221.932 263.393 222.592 263.7 223.472 263.7C224.352 263.7 225.005 263.387 225.432 262.76C225.859 262.133 226.072 261.173 226.072 259.88C226.072 258.573 225.852 257.613 225.412 257C224.985 256.387 224.339 256.08 223.472 256.08ZM234.672 254.58C236.019 254.58 237.019 254.847 237.672 255.38C238.339 255.913 238.672 256.687 238.672 257.7V263C238.672 263.24 238.726 263.42 238.832 263.54C238.939 263.647 239.072 263.7 239.232 263.7C239.539 263.7 239.846 263.607 240.152 263.42V264.8C239.699 265.067 239.186 265.2 238.612 265.2C238.039 265.2 237.612 265.04 237.332 264.72C237.052 264.387 236.899 263.933 236.872 263.36C236.046 264.587 234.852 265.2 233.292 265.2C232.172 265.2 231.332 264.96 230.772 264.48C230.226 263.987 229.952 263.213 229.952 262.16C229.952 261.333 230.166 260.687 230.592 260.22C231.019 259.74 231.726 259.393 232.712 259.18C233.699 258.967 235.059 258.86 236.792 258.86V257.92C236.792 257.24 236.592 256.767 236.192 256.5C235.792 256.22 235.212 256.08 234.452 256.08C233.732 256.08 233.172 256.22 232.772 256.5C232.372 256.78 232.172 257.173 232.172 257.68V257.92H230.332C230.306 257.733 230.292 257.513 230.292 257.26C230.292 256.793 230.479 256.353 230.852 255.94C231.226 255.527 231.732 255.2 232.372 254.96C233.012 254.707 233.719 254.58 234.492 254.58H234.672ZM236.792 260.32C235.392 260.32 234.332 260.393 233.612 260.54C232.906 260.673 232.432 260.88 232.192 261.16C231.952 261.44 231.832 261.827 231.832 262.32C231.832 263.24 232.532 263.7 233.932 263.7C234.426 263.7 234.892 263.58 235.332 263.34C235.772 263.087 236.126 262.733 236.392 262.28C236.659 261.827 236.792 261.307 236.792 260.72V260.32ZM246.951 254.58C247.898 254.58 248.638 254.887 249.171 255.5C249.705 256.1 249.971 256.86 249.971 257.78L249.911 258.54H248.251V258.1C248.251 257.7 248.151 257.347 247.951 257.04C247.751 256.733 247.498 256.5 247.191 256.34C246.885 256.167 246.578 256.08 246.271 256.08C245.631 256.08 245.131 256.333 244.771 256.84C244.411 257.347 244.231 258.033 244.231 258.9V265H242.351V254.78H243.691L243.971 256.3C244.051 256.033 244.231 255.767 244.511 255.5C244.791 255.233 245.138 255.013 245.551 254.84C245.978 254.667 246.445 254.58 246.951 254.58ZM256.256 254.58C257.096 254.58 257.836 254.76 258.476 255.12C259.129 255.467 259.636 255.967 259.996 256.62C260.356 257.273 260.536 258.033 260.536 258.9V260.32H253.396C253.423 261.4 253.676 262.233 254.156 262.82C254.636 263.407 255.349 263.7 256.296 263.7C257.136 263.7 257.756 263.453 258.156 262.96C258.556 262.467 258.756 261.88 258.756 261.2H260.536C260.536 262 260.349 262.7 259.976 263.3C259.616 263.9 259.109 264.367 258.456 264.7C257.816 265.033 257.083 265.2 256.256 265.2H256.176C254.736 265.2 253.596 264.74 252.756 263.82C251.929 262.887 251.516 261.647 251.516 260.1V259.7C251.516 258.687 251.703 257.793 252.076 257.02C252.449 256.247 252.983 255.647 253.676 255.22C254.369 254.793 255.183 254.58 256.116 254.58H256.256ZM256.156 256.08C255.396 256.08 254.776 256.313 254.296 256.78C253.829 257.247 253.543 257.94 253.436 258.86H258.676V258.62C258.676 257.86 258.443 257.247 257.976 256.78C257.523 256.313 256.916 256.08 256.156 256.08ZM268.309 254.58C269.429 254.58 270.309 254.88 270.949 255.48C271.589 256.08 271.909 256.96 271.909 258.12V265H270.029V258.46C270.029 256.873 269.309 256.08 267.869 256.08C267.389 256.08 266.943 256.207 266.529 256.46C266.116 256.713 265.783 257.06 265.529 257.5C265.276 257.927 265.149 258.4 265.149 258.92V265H263.269V254.78H264.629L264.889 256.28C265.743 255.147 266.883 254.58 268.309 254.58ZM279.125 254.58C279.938 254.58 280.665 254.76 281.305 255.12C281.958 255.467 282.465 255.96 282.825 256.6C283.185 257.24 283.365 257.973 283.365 258.8H281.505C281.505 257.973 281.292 257.313 280.865 256.82C280.452 256.327 279.852 256.08 279.065 256.08C278.238 256.08 277.578 256.36 277.085 256.92C276.605 257.467 276.365 258.22 276.365 259.18V260.26C276.365 261.42 276.605 262.287 277.085 262.86C277.565 263.42 278.245 263.7 279.125 263.7C279.938 263.7 280.545 263.46 280.945 262.98C281.358 262.487 281.565 261.827 281.565 261H283.365C283.365 262.28 282.978 263.3 282.205 264.06C281.445 264.82 280.425 265.2 279.145 265.2H278.985C278.078 265.2 277.285 264.993 276.605 264.58C275.925 264.153 275.398 263.56 275.025 262.8C274.665 262.04 274.485 261.153 274.485 260.14V259.66C274.485 258.647 274.672 257.76 275.045 257C275.418 256.227 275.945 255.633 276.625 255.22C277.305 254.793 278.085 254.58 278.965 254.58H279.125ZM287.924 250.6V252.34H285.964V250.6H287.924ZM287.884 254.78V265H286.004V254.78H287.884ZM295.219 254.58C296.566 254.58 297.566 254.847 298.219 255.38C298.886 255.913 299.219 256.687 299.219 257.7V263C299.219 263.24 299.272 263.42 299.379 263.54C299.486 263.647 299.619 263.7 299.779 263.7C300.086 263.7 300.392 263.607 300.699 263.42V264.8C300.246 265.067 299.732 265.2 299.159 265.2C298.586 265.2 298.159 265.04 297.879 264.72C297.599 264.387 297.446 263.933 297.419 263.36C296.592 264.587 295.399 265.2 293.839 265.2C292.719 265.2 291.879 264.96 291.319 264.48C290.772 263.987 290.499 263.213 290.499 262.16C290.499 261.333 290.712 260.687 291.139 260.22C291.566 259.74 292.272 259.393 293.259 259.18C294.246 258.967 295.606 258.86 297.339 258.86V257.92C297.339 257.24 297.139 256.767 296.739 256.5C296.339 256.22 295.759 256.08 294.999 256.08C294.279 256.08 293.719 256.22 293.319 256.5C292.919 256.78 292.719 257.173 292.719 257.68V257.92H290.879C290.852 257.733 290.839 257.513 290.839 257.26C290.839 256.793 291.026 256.353 291.399 255.94C291.772 255.527 292.279 255.2 292.919 254.96C293.559 254.707 294.266 254.58 295.039 254.58H295.219ZM297.339 260.32C295.939 260.32 294.879 260.393 294.159 260.54C293.452 260.673 292.979 260.88 292.739 261.16C292.499 261.44 292.379 261.827 292.379 262.32C292.379 263.24 293.079 263.7 294.479 263.7C294.972 263.7 295.439 263.58 295.879 263.34C296.319 263.087 296.672 262.733 296.939 262.28C297.206 261.827 297.339 261.307 297.339 260.72V260.32Z" fill="#3B1C62"/>
<path d="M101.875 83.625C103.926 83.625 105.625 81.9844 105.625 79.875C105.625 77.8242 103.926 76.125 101.875 76.125C101.816 76.125 101.758 76.1836 101.699 76.1836C101.758 76.418 101.875 76.8281 101.875 77.1211C101.875 78.6445 100.586 79.9336 99.0625 79.9336C98.7695 79.9336 98.3594 79.8164 98.125 79.7578C98.125 79.8164 98.125 79.875 98.125 79.875C98.125 81.9844 99.7656 83.625 101.875 83.625ZM118.516 80.9297C115.352 74.7188 109.023 70.5 101.875 70.5C94.668 70.5 88.3398 74.7188 85.1758 80.9297C85.0586 81.1641 85 81.5156 85 81.8086C85 82.043 85.0586 82.3945 85.1758 82.6289C88.3398 88.8398 94.668 93 101.875 93C109.023 93 115.352 88.8398 118.516 82.6289C118.633 82.3945 118.691 82.043 118.691 81.75C118.691 81.5156 118.633 81.1641 118.516 80.9297ZM101.875 72.375C105.977 72.375 109.375 75.7734 109.375 79.875C109.375 84.0352 105.977 87.375 101.875 87.375C97.7148 87.375 94.375 84.0352 94.375 79.875C94.375 75.7734 97.7148 72.4336 101.875 72.375ZM101.875 91.125C95.5469 91.125 89.8047 87.5508 86.875 81.75C88.2812 78.9961 91.6797 75.5977 94.4336 74.1914C93.2031 75.7734 92.5 77.7656 92.5 79.875C92.5 85.0898 96.6602 89.25 101.875 89.25C107.031 89.25 111.25 85.0898 111.25 79.875C111.25 77.7656 110.488 75.7734 109.258 74.1914C112.012 75.5977 115.41 78.9961 116.875 81.75C113.887 87.5508 108.145 91.125 101.875 91.125Z" fill="#1D1D1D"/>
<path d="M191.875 34.625C193.926 34.625 195.625 32.9844 195.625 30.875C195.625 28.8242 193.926 27.125 191.875 27.125C191.816 27.125 191.758 27.1836 191.699 27.1836C191.758 27.418 191.875 27.8281 191.875 28.1211C191.875 29.6445 190.586 30.9336 189.062 30.9336C188.77 30.9336 188.359 30.8164 188.125 30.7578C188.125 30.8164 188.125 30.875 188.125 30.875C188.125 32.9844 189.766 34.625 191.875 34.625ZM208.516 31.9297C205.352 25.7188 199.023 21.5 191.875 21.5C184.668 21.5 178.34 25.7188 175.176 31.9297C175.059 32.1641 175 32.5156 175 32.8086C175 33.043 175.059 33.3945 175.176 33.6289C178.34 39.8398 184.668 44 191.875 44C199.023 44 205.352 39.8398 208.516 33.6289C208.633 33.3945 208.691 33.043 208.691 32.75C208.691 32.5156 208.633 32.1641 208.516 31.9297ZM191.875 23.375C195.977 23.375 199.375 26.7734 199.375 30.875C199.375 35.0352 195.977 38.375 191.875 38.375C187.715 38.375 184.375 35.0352 184.375 30.875C184.375 26.7734 187.715 23.4336 191.875 23.375ZM191.875 42.125C185.547 42.125 179.805 38.5508 176.875 32.75C178.281 29.9961 181.68 26.5977 184.434 25.1914C183.203 26.7734 182.5 28.7656 182.5 30.875C182.5 36.0898 186.66 40.25 191.875 40.25C197.031 40.25 201.25 36.0898 201.25 30.875C201.25 28.7656 200.488 26.7734 199.258 25.1914C202.012 26.5977 205.41 29.9961 206.875 32.75C203.887 38.5508 198.145 42.125 191.875 42.125Z" fill="#1D1D1D"/>
<path d="M284.875 134.625C286.926 134.625 288.625 132.984 288.625 130.875C288.625 128.824 286.926 127.125 284.875 127.125C284.816 127.125 284.758 127.184 284.699 127.184C284.758 127.418 284.875 127.828 284.875 128.121C284.875 129.645 283.586 130.934 282.062 130.934C281.77 130.934 281.359 130.816 281.125 130.758C281.125 130.816 281.125 130.875 281.125 130.875C281.125 132.984 282.766 134.625 284.875 134.625ZM301.516 131.93C298.352 125.719 292.023 121.5 284.875 121.5C277.668 121.5 271.34 125.719 268.176 131.93C268.059 132.164 268 132.516 268 132.809C268 133.043 268.059 133.395 268.176 133.629C271.34 139.84 277.668 144 284.875 144C292.023 144 298.352 139.84 301.516 133.629C301.633 133.395 301.691 133.043 301.691 132.75C301.691 132.516 301.633 132.164 301.516 131.93ZM284.875 123.375C288.977 123.375 292.375 126.773 292.375 130.875C292.375 135.035 288.977 138.375 284.875 138.375C280.715 138.375 277.375 135.035 277.375 130.875C277.375 126.773 280.715 123.434 284.875 123.375ZM284.875 142.125C278.547 142.125 272.805 138.551 269.875 132.75C271.281 129.996 274.68 126.598 277.434 125.191C276.203 126.773 275.5 128.766 275.5 130.875C275.5 136.09 279.66 140.25 284.875 140.25C290.031 140.25 294.25 136.09 294.25 130.875C294.25 128.766 293.488 126.773 292.258 125.191C295.012 126.598 298.41 129.996 299.875 132.75C296.887 138.551 291.145 142.125 284.875 142.125Z" fill="black"/>
<path d="M26.875 209.625C28.9258 209.625 30.625 207.984 30.625 205.875C30.625 203.824 28.9258 202.125 26.875 202.125C26.8164 202.125 26.7578 202.184 26.6992 202.184C26.7578 202.418 26.875 202.828 26.875 203.121C26.875 204.645 25.5859 205.934 24.0625 205.934C23.7695 205.934 23.3594 205.816 23.125 205.758C23.125 205.816 23.125 205.875 23.125 205.875C23.125 207.984 24.7656 209.625 26.875 209.625ZM43.5156 206.93C40.3516 200.719 34.0234 196.5 26.875 196.5C19.668 196.5 13.3398 200.719 10.1758 206.93C10.0586 207.164 10 207.516 10 207.809C10 208.043 10.0586 208.395 10.1758 208.629C13.3398 214.84 19.668 219 26.875 219C34.0234 219 40.3516 214.84 43.5156 208.629C43.6328 208.395 43.6914 208.043 43.6914 207.75C43.6914 207.516 43.6328 207.164 43.5156 206.93ZM26.875 198.375C30.9766 198.375 34.375 201.773 34.375 205.875C34.375 210.035 30.9766 213.375 26.875 213.375C22.7148 213.375 19.375 210.035 19.375 205.875C19.375 201.773 22.7148 198.434 26.875 198.375ZM26.875 217.125C20.5469 217.125 14.8047 213.551 11.875 207.75C13.2812 204.996 16.6797 201.598 19.4336 200.191C18.2031 201.773 17.5 203.766 17.5 205.875C17.5 211.09 21.6602 215.25 26.875 215.25C32.0312 215.25 36.25 211.09 36.25 205.875C36.25 203.766 35.4883 201.773 34.2578 200.191C37.0117 201.598 40.4102 204.996 41.875 207.75C38.8867 213.551 33.1445 217.125 26.875 217.125Z" fill="#1D1D1D"/>
</svg>
